<?xml version="1.0" encoding="UTF-8" standalone="no"?>
<!-- Created with Vectornator (http://vectornator.io/) -->

<svg
   height="1536.644"
   stroke-miterlimit="10"
   style="clip-rule:evenodd;fill-rule:nonzero;stroke-linecap:round;stroke-linejoin:round"
   version="1.1"
   viewBox="0 0 1810.051 1536.644"
   width="1810.051"
   xml:space="preserve"
   id="svg41"
   sodipodi:docname="Olim.svg"
   inkscape:version="1.2.2 (b0a8486541, 2022-12-01)"
   xmlns:inkscape="http://www.inkscape.org/namespaces/inkscape"
   xmlns:sodipodi="http://sodipodi.sourceforge.net/DTD/sodipodi-0.dtd"
   xmlns="http://www.w3.org/2000/svg"
   xmlns:svg="http://www.w3.org/2000/svg"
   xmlns:vectornator="http://vectornator.io"><sodipodi:namedview
   id="namedview43"
   pagecolor="#ffffff"
   bordercolor="#cccccc"
   borderopacity="1"
   inkscape:showpageshadow="0"
   inkscape:pageopacity="1"
   inkscape:pagecheckerboard="0"
   inkscape:deskcolor="#d1d1d1"
   showgrid="false"
   inkscape:zoom="0.18675716"
   inkscape:cx="926.33666"
   inkscape:cy="1935.6688"
   inkscape:window-width="3068"
   inkscape:window-height="1685"
   inkscape:window-x="1080"
   inkscape:window-y="233"
   inkscape:window-maximized="1"
   inkscape:current-layer="svg41" />
<defs
   id="defs2" />
<g
   id="Sem-Título"
   vectornator:layerName="Sem Título"
   transform="translate(-104.65683,-241.20035)">
<path
   d="m 1536.37,321.127 c 11.2,5.424 22.54,10.582 33.56,16.342 11.93,6.235 23.76,12.718 35.29,19.655 18.87,11.348 37.92,22.496 56.05,34.954 16.61,11.411 32.21,24.307 48.04,36.822 7.59,6.002 14.7,12.617 21.99,18.992 3.97,3.463 4.66,9.124 1.53,14.618 -9.16,16.034 -18.5,31.959 -27.64,48 -5.46,9.572 -10.68,19.279 -15.99,28.933 -10.75,19.547 -21.42,39.144 -32.27,58.638 -12.14,21.81 -24.48,43.511 -36.67,65.293 -7.1,12.69 -14.09,25.442 -21.11,38.174 -5.68,10.29 -11.34,20.593 -17.23,31.297 102.33,-13.523 190.14,15.325 259.85,91.888 49.8,54.712 73.87,120.808 72.91,194.647 -1.11,85.36 -33.78,157.66 -98.26,214.02 -64.61,56.46 -140.89,77.2 -225.75,68.44 5.87,10.61 11.56,21.01 17.36,31.34 10.93,19.48 21.98,38.9 32.9,58.4 5.21,9.32 10.15,18.79 15.35,28.12 9.84,17.67 19.82,35.26 29.68,52.92 9.47,16.95 18.82,33.97 28.27,50.94 5.99,10.76 12.02,21.5 18.1,32.21 4.25,7.48 3.4,11.11 -3.21,16.7 -7.02,5.95 -13.5,12.55 -20.58,18.42 -11.45,9.48 -22.68,19.35 -34.93,27.7 -20.98,14.31 -42.21,28.38 -64.2,41.07 -23.7,13.67 -48.38,25.64 -73.21,38.12 -49.42,-85.68 -98.25,-171.15 -147.15,-256.57 -27.97,-48.85 -56.07,-97.63 -83.97,-146.74 0.69,-0.92 1.23,-1.56 1.79,-2.17 56.09,-60.18 91.51,-130.73 105.5,-211.8 2.96,-17.14 4.76,-34.6 5.51,-51.99 0.74,-17.22 -0.4,-34.534 -0.97,-51.799 -0.15,-4.565 -1.23,-9.1 -1.88,-14.102 -0.04,-2.281 0.08,-4.134 -0.17,-5.934 -4.08,-29.387 -10.93,-58.099 -21.11,-85.988 -12.84,-35.193 -29.72,-68.328 -52.06,-98.427 -11.56,-15.578 -24.43,-30.185 -36.55,-45.539 0.84,-1.455 1.53,-2.59 2.19,-3.746 63.02,-110.315 126.06,-220.619 189.03,-330.958 13.45,-23.565 26.68,-47.257 40.01,-70.89 m 236.03,550.075 c -26.26,26.272 -52.51,52.554 -78.79,78.811 -31.11,31.083 -62.24,62.147 -94.19,93.187 -0.56,0.01 -1.12,0.02 -2.2,-0.38 -15.57,-15.68 -31.15,-31.35 -46.95,-47.259 -21.68,22.279 -42.74,43.919 -63.68,65.439 17.23,17.94 33.76,35.47 50.64,52.66 18.91,19.25 38.12,38.21 57.21,57.29 4.5,4.49 4.66,4.53 9.11,-0.01 21.42,-21.85 42.65,-43.89 64.25,-65.56 55.27,-55.46 110.71,-110.762 166.05,-166.15 1.63,-1.631 3,-3.52 4.82,-5.761 -1.05,-1.42 -1.95,-2.998 -3.18,-4.237 -16.5,-16.572 -33.05,-33.097 -49.59,-49.633 -2.93,-2.932 -5.73,-6.014 -8.89,-8.689 -0.83,-0.712 -2.74,-0.172 -4.61,0.292 z"
   fill="#febc17"
   fill-rule="nonzero"
   opacity="1"
   stroke="none"
   vectornator:layerName="path"
   id="path4" />
<path
   d="m 434.042,727.942 c -6.837,-12.629 -13.57,-25.316 -20.541,-37.871 -7.379,-13.29 -15.029,-26.43 -22.481,-39.68 -9.286,-16.512 -18.519,-33.054 -27.723,-49.612 -7.148,-12.861 -14.166,-25.794 -21.331,-38.645 -10.869,-19.494 -21.821,-38.942 -32.728,-58.415 -7.759,-13.852 -15.588,-27.666 -23.218,-41.589 -3.631,-6.626 -2.334,-10.401 3.697,-15.493 7.03,-5.935 13.489,-12.557 20.612,-18.37 11.866,-9.684 23.609,-19.624 36.223,-28.261 20.699,-14.172 41.541,-28.277 63.264,-40.773 25.256,-14.528 51.526,-27.294 77.8,-40.608 27.769,48.255 55.03,96.331 82.434,144.324 48.949,85.723 97.983,171.396 146.913,257.423 -7.671,8.89 -15.408,17.332 -22.851,26.026 -18.901,22.075 -34.974,46.109 -48.62,71.738 -13.178,24.75 -23.828,50.574 -31.534,77.556 -6.306,22.082 -11.636,44.373 -13.321,67.732 -1.008,5.047 -2.491,9.762 -2.506,14.482 -0.085,27.854 -2.381,55.774 2.528,83.474 2.453,13.85 4.252,27.84 7.401,41.52 12.741,55.38 35.362,106.38 69.784,151.73 12.246,16.13 26.17,30.99 39.171,46.74 -11.74,20.53 -23.332,40.74 -34.905,60.97 -28.439,49.68 -56.879,99.37 -85.299,149.07 -25.116,43.92 -50.215,87.85 -75.299,131.79 -10.973,19.22 -21.891,38.47 -32.834,57.71 -13.239,-6.46 -26.607,-12.67 -39.681,-19.44 -11.951,-6.2 -23.782,-12.67 -35.313,-19.61 -18.869,-11.36 -37.896,-22.54 -56.023,-35.01 -16.604,-11.42 -32.21,-24.31 -48.043,-36.82 -7.593,-6 -14.727,-12.59 -22.005,-18.98 -3.909,-3.43 -4.497,-9.23 -1.402,-14.66 10.832,-18.99 21.828,-37.89 32.593,-56.92 6.055,-10.71 11.705,-21.64 17.666,-32.4 11.765,-21.23 23.604,-42.43 35.442,-63.62 10.583,-18.94 21.267,-37.83 31.795,-56.81 7.908,-14.25 15.639,-28.61 23.682,-43.34 -1.61,-0.49 -2.979,-1.31 -4.286,-1.23 -6.525,0.44 -13.023,1.36 -19.552,1.66 -7.471,0.34 -14.974,0.48 -22.443,0.19 -6.365,-0.25 -12.687,-1.44 -19.052,-1.88 -22.897,-1.57 -45.014,-6.86 -66.592,-14.34 -29.147,-10.1 -56.271,-24.23 -80.041,-44 -13.571,-11.28 -26.755,-23.21 -38.852,-36.04 -14.815,-15.71 -26.797,-33.66 -37.224,-52.69 -8.893,-16.23 -16.038,-33.12 -21.613,-50.67 -5.197,-16.37 -9.411,-33.01 -10.724,-50.22 -0.751,-9.85 -1.619,-19.7 -1.937,-29.56 -0.334,-10.35 -0.767,-20.78 0.059,-31.077 2.284,-28.464 8.478,-56.168 19.014,-82.731 11.006,-27.747 25.899,-53.285 44.952,-76.385 23.194,-28.122 50.393,-51.33 82.248,-69.181 23.716,-13.29 48.886,-22.722 75.241,-28.839 11.692,-2.713 23.783,-3.821 35.742,-5.234 8.967,-1.06 18.013,-1.962 27.026,-1.977 8.842,-0.015 17.685,1.186 26.529,1.841 5.093,0.378 10.189,0.731 15.87,1.508 2.657,0.953 4.727,1.495 6.798,2.037 0.247,-0.45 0.494,-0.9 0.741,-1.35 -1.75,-1.73 -3.501,-3.46 -5.251,-5.19 M 278.459,864.287 c -20.519,20.574 -41.039,41.148 -62.052,61.825 0.107,0.669 0.214,1.339 0.727,2.55 27.093,27.116 54.123,54.294 81.353,81.268 3.505,3.48 3.849,5.4 0.133,9.07 -26.679,26.35 -53.121,52.94 -79.628,79.47 -1.37,1.37 -2.647,2.83 -4.149,4.45 1.467,1.58 2.548,2.81 3.706,3.97 18.848,18.87 37.791,37.64 56.482,56.65 3.296,3.36 5.08,3.14 8.266,-0.07 26.393,-26.64 52.961,-53.1 79.479,-79.62 4.736,-4.73 4.746,-4.73 9.63,0.15 26.399,26.4 52.795,52.8 79.195,79.19 4.731,4.73 4.747,4.74 9.292,0.19 18.506,-18.5 36.919,-37.09 55.584,-55.42 3.545,-3.49 3.792,-5.48 0.103,-9.13 -26.788,-26.48 -53.284,-53.25 -80.061,-79.74 -3.584,-3.54 -3.678,-5.51 -0.038,-9.11 26.431,-26.122 52.581,-52.534 78.993,-78.68 3.48,-3.444 3.957,-5.445 0.197,-9.129 -18.807,-18.429 -37.402,-37.077 -55.874,-55.842 -3.32,-3.373 -5.277,-3.593 -8.736,-0.095 -25.314,25.595 -50.834,50.985 -76.289,76.44 -7.258,7.258 -7.25,7.25 -14.366,0.153 -26.431,-26.36 -52.868,-52.714 -79.476,-79.539 -0.64,0.204 -1.28,0.409 -2.471,0.999 z"
   fill="#febc17"
   fill-rule="nonzero"
   opacity="1"
   stroke="none"
   vectornator:layerName="path"
   id="path6" />
<path
   d="m 1536.14,320.829 c -13.1,23.931 -26.33,47.623 -39.78,71.188 -62.97,110.339 -126.01,220.643 -189.03,330.958 -0.66,1.156 -1.35,2.291 -2.49,3.612 -1.54,-0.87 -2.63,-1.895 -3.68,-2.962 -45.53,-46.224 -98.93,-80.034 -160.35,-100.947 -14.46,-4.923 -29.35,-8.585 -43.94,-13.164 35.8,-65.05 71.51,-129.76 107.17,-194.494 0.85,-1.542 1.22,-3.348 1.81,-5.031 5.2,-10.016 10.22,-20.124 15.62,-30.027 8.36,-15.34 17.02,-30.516 25.48,-45.806 6.01,-10.88 11.79,-21.891 17.87,-32.739 8.14,-14.554 16.46,-29.012 24.73,-43.499 2.11,-3.709 4.33,-7.362 6.47,-11.056 3.15,-5.443 6.81,-6.487 12.92,-5.118 7.98,1.788 16.23,2.425 24.19,4.267 11.45,2.646 22.86,5.57 34.08,9.027 19.72,6.071 39.42,12.242 58.86,19.117 16.17,5.717 32.04,12.279 47.88,18.878 18.12,7.556 36.07,15.541 54.07,23.404 2.71,1.185 5.27,2.721 8.12,4.392 z"
   fill="#1ba748"
   fill-rule="nonzero"
   opacity="1"
   stroke="none"
   vectornator:layerName="path"
   id="path8" />
<path
   d="m 1304.94,1294.76 c 28.04,48.82 56.14,97.6 84.11,146.45 48.9,85.42 97.73,170.89 146.78,256.63 -10.29,5.3 -20.65,10.61 -31.31,15.25 -16.62,7.23 -33.27,14.47 -50.23,20.85 -22.51,8.47 -45.2,16.53 -68.06,23.98 -18.17,5.92 -36.65,10.92 -55.14,15.81 -8.03,2.12 -16.38,3.4 -24.67,4.09 -3.01,0.25 -7.61,-1.44 -9.16,-3.79 -6.52,-9.82 -12.27,-20.17 -18.09,-30.44 -9.43,-16.63 -18.78,-33.32 -28.01,-50.06 -6.56,-11.88 -12.86,-23.91 -19.3,-35.86 -3.95,-7.32 -7.95,-14.63 -11.92,-22.68 -1.09,-3.3 -1.97,-5.98 -3.3,-8.41 -17.01,-30.88 -34.1,-61.72 -51.14,-92.58 -21.79,-39.45 -43.53,-78.92 -65.35,-118.35 -0.77,-1.4 -2.11,-2.5 -2.88,-3.95 60.21,-13.81 114.66,-39.11 162.89,-77.16 15.64,-12.35 29.9,-26.47 44.78,-39.78 z"
   fill="#1ba748"
   fill-rule="nonzero"
   opacity="1"
   stroke="none"
   vectornator:layerName="path"
   id="path10" />
<path
   d="M 717.032,720.039 C 668.033,634.345 618.999,548.672 570.05,462.949 542.646,414.956 515.385,366.88 487.941,318.516 c 17.143,-8.037 34.183,-16.295 51.716,-23.326 24.755,-9.929 49.671,-19.544 74.899,-28.181 22.121,-7.573 44.693,-13.876 67.221,-20.188 7.64,-2.141 15.751,-2.607 23.65,-3.818 3.496,-0.536 7.125,-1.809 10.457,-1.275 2.552,0.409 5.613,2.619 6.939,4.903 11.319,19.498 22.365,39.156 33.353,58.843 13.902,24.908 27.701,49.874 41.488,74.847 5.139,9.309 10.118,18.708 15.232,28.748 0.815,2.658 1.342,4.759 2.352,6.593 35.548,64.505 71.142,128.986 106.433,193.688 -7.382,2.015 -14.487,3.735 -21.549,5.62 -40.667,10.857 -78.636,27.83 -114.012,50.594 -23.412,15.066 -45.234,32.157 -65.042,51.771 -1.132,1.121 -2.688,1.813 -4.046,2.704 z"
   fill="#ee4b3c"
   fill-rule="nonzero"
   opacity="1"
   stroke="none"
   vectornator:layerName="path"
   id="path12" />
<path
   d="m 488.909,1701.22 c 10.712,-19.55 21.63,-38.8 32.603,-58.02 25.084,-43.94 50.183,-87.87 75.299,-131.79 28.42,-49.7 56.86,-99.39 85.299,-149.07 11.573,-20.23 23.165,-40.44 35.197,-60.84 41.359,40.19 88.267,71.53 142.11,91.79 20.17,7.59 41.24,12.79 61.653,19.3 -7.013,12.25 -13.859,24.23 -20.534,36.3 -33.413,60.41 -66.793,120.84 -100.103,181.3 -0.92,1.67 -0.92,3.85 -1.349,5.79 -16.999,30.88 -33.917,61.8 -51.033,92.61 -8.165,14.7 -16.68,29.21 -25.092,43.77 -2.875,4.98 -6.993,6.05 -12.702,4.82 -8.121,-1.74 -16.497,-2.34 -24.572,-4.24 -12.816,-3.02 -25.647,-6.18 -38.162,-10.23 -24.272,-7.86 -48.492,-15.95 -72.424,-24.78 -18.789,-6.93 -37.16,-15.01 -55.625,-22.8 -10.208,-4.31 -20.229,-9.06 -30.565,-13.91 z"
   fill="#ee4b3c"
   fill-rule="nonzero"
   opacity="1"
   stroke="none"
   vectornator:layerName="path"
   id="path14" />
<path
   d="m 799.463,1636 c 0.05,-1.96 0.05,-4.14 0.97,-5.81 33.31,-60.46 66.69,-120.89 100.103,-181.3 6.675,-12.07 13.521,-24.05 20.9,-36.29 19.11,2.64 37.527,7 56.125,8 23.179,1.25 46.519,-0.11 69.779,-0.71 6.36,-0.16 12.72,-1.46 19.03,-2.51 10.22,-1.7 20.4,-3.63 30.6,-5.46 1.07,1.23 2.41,2.33 3.18,3.73 21.82,39.43 43.56,78.9 65.35,118.35 17.04,30.86 34.13,61.7 51.14,92.58 1.33,2.43 2.21,5.11 3.22,8.05 -18.35,5.95 -36.48,12.08 -54.94,16.94 -14.96,3.94 -30.27,6.62 -45.52,9.36 -13.2,2.37 -26.49,4.27 -39.81,5.93 -8.97,1.12 -18.04,1.83 -27.08,2.06 -22.1,0.57 -44.23,1.35 -66.32,0.89 -17.714,-0.38 -35.397,-2.39 -53.084,-3.8 -25.982,-2.08 -51.458,-7.35 -76.761,-13.23 -16.465,-3.82 -32.568,-9.2 -48.815,-13.95 -2.612,-0.76 -5.127,-1.86 -8.067,-2.83 z"
   fill="#1972c0"
   fill-rule="nonzero"
   opacity="1"
   stroke="none"
   vectornator:layerName="path"
   id="path16" />
<path
   d="M 921.977,609.132 C 886.39,544.648 850.796,480.167 815.248,415.662 c -1.01,-1.834 -1.537,-3.935 -2.176,-6.283 9.504,-3.043 18.815,-6.042 28.301,-8.314 16.419,-3.932 32.902,-7.624 49.442,-11.011 11.171,-2.287 22.464,-4.015 33.742,-5.728 6.816,-1.035 13.692,-1.823 20.571,-2.265 13.36,-0.858 26.736,-1.525 40.115,-2.029 13.403,-0.505 26.847,-1.39 40.217,-0.89 18.58,0.693 37.24,1.637 55.65,4.089 22.77,3.032 45.45,7.075 67.91,11.89 18.89,4.048 37.4,9.827 56.46,14.854 -0.22,1.697 -0.59,3.503 -1.44,5.045 -35.66,64.734 -71.37,129.444 -107.56,194.519 -9.24,-1.236 -17.94,-3.224 -26.74,-4.339 -13.73,-1.737 -27.51,-3.787 -41.3,-4.059 -19.76,-0.391 -39.6,-0.028 -59.306,1.391 -15.795,1.137 -31.444,4.323 -47.157,6.6 z"
   fill="#1972c0"
   fill-rule="nonzero"
   opacity="1"
   stroke="none"
   vectornator:layerName="path"
   id="path18" />
<path
   d="m 1097.27,1411.7 c -10.5,2.05 -20.68,3.98 -30.9,5.68 -6.31,1.05 -12.67,2.35 -19.03,2.51 -23.26,0.6 -46.6,1.96 -69.779,0.71 -18.598,-1 -37.015,-5.36 -55.878,-8.23 -21.026,-6.29 -42.096,-11.49 -62.266,-19.08 -53.843,-20.26 -100.751,-51.6 -141.953,-92.1 -13.45,-15.57 -27.374,-30.43 -39.62,-46.56 -34.422,-45.35 -57.043,-96.35 -69.784,-151.73 -3.149,-13.68 -4.948,-27.67 -7.401,-41.52 -4.909,-27.7 -2.613,-55.62 -2.528,-83.474 0.015,-4.72 1.498,-9.435 2.99,-14.44 72.999,-0.28 145.312,-0.277 217.624,-0.248 2.32,0 4.638,0.252 6.767,0.791 -5.213,16.196 -8.525,32.423 -9.262,48.891 -0.519,11.61 0.458,23.44 2.158,34.96 7.446,50.47 31.171,91.76 71.357,123.34 29.761,23.39 63.956,36.31 101.366,39.42 15.469,1.29 31.529,-0.14 46.909,-2.73 94.01,-15.86 147,-93.55 154.09,-156.44 1.57,-13.88 3.18,-27.54 2.14,-41.64 -1.12,-15.151 -3.65,-29.874 -7.6,-44.749 0.25,-0.804 0.35,-1.277 0.91,-1.791 76.12,-0.097 151.79,-0.152 227.45,-0.207 0.65,4.548 1.73,9.083 1.88,13.648 0.57,17.265 1.71,34.579 0.97,51.799 -0.75,17.39 -2.55,34.85 -5.51,51.99 -13.99,81.07 -49.41,151.62 -105.5,211.8 -0.56,0.61 -1.1,1.25 -1.79,2.17 -15.02,13.6 -29.28,27.72 -44.92,40.07 -48.23,38.05 -102.68,63.35 -162.89,77.16 z"
   fill="#f1f1f1"
   fill-rule="nonzero"
   opacity="1"
   stroke="none"
   vectornator:layerName="path"
   id="path20" />
<path
   d="m 825.702,963.605 c -2.319,-0.135 -4.637,-0.387 -6.957,-0.387 -72.312,-0.029 -144.625,-0.032 -217.421,-0.081 0.998,-23.072 6.328,-45.363 12.634,-67.445 7.706,-26.982 18.356,-52.806 31.534,-77.556 13.646,-25.629 29.719,-49.663 48.62,-71.738 7.443,-8.694 15.18,-17.136 22.851,-26.026 1.427,-1.224 2.983,-1.916 4.115,-3.037 19.808,-19.614 41.63,-36.705 65.042,-51.771 35.376,-22.764 73.345,-39.737 114.012,-50.594 7.062,-1.885 14.167,-3.605 21.549,-5.62 16.009,-2.495 31.658,-5.681 47.453,-6.818 19.706,-1.419 39.546,-1.782 59.306,-1.391 13.79,0.272 27.57,2.322 41.3,4.059 8.8,1.115 17.5,3.103 26.63,4.676 15.09,4.217 29.98,7.879 44.44,12.802 61.42,20.913 114.82,54.723 160.35,100.947 1.05,1.067 2.14,2.092 3.52,3.271 12.58,15.179 25.45,29.786 37.01,45.364 22.34,30.099 39.22,63.234 52.06,98.427 10.18,27.889 17.03,56.601 21.11,85.988 0.25,1.8 0.13,3.653 0.17,5.934 -75.66,0.509 -151.33,0.564 -227.8,0.588 -1.03,0.013 -1.26,0.056 -1.95,0.088 -1.11,-0.036 -1.78,-0.08 -2.44,-0.08 -117.57,-0.003 -235.129,-0.005 -352.692,0.014 -1.482,0 -2.964,0.252 -4.446,0.386 z"
   fill="#ef7410"
   fill-rule="nonzero"
   opacity="1"
   stroke="none"
   vectornator:layerName="path"
   id="path22" />
<path
   d="m 1600.25,1043.23 c 31.12,-31.07 62.25,-62.134 93.36,-93.217 26.28,-26.257 52.53,-52.539 79.4,-79.048 2.04,0.822 3.63,1.727 4.89,2.968 7.45,7.347 14.8,14.794 22.23,22.165 12.72,12.631 25.47,25.231 38.21,37.844 -1.49,1.768 -2.86,3.657 -4.49,5.288 -55.34,55.388 -110.78,110.69 -166.05,166.15 -21.6,21.67 -42.83,43.71 -64.25,65.56 -4.45,4.54 -4.61,4.5 -9.11,0.01 -19.09,-19.08 -38.3,-38.04 -57.21,-57.29 -16.88,-17.19 -33.41,-34.72 -50.64,-52.66 20.94,-21.52 42,-43.16 63.68,-65.439 15.8,15.909 31.38,31.579 47.29,47.719 1.13,0.28 1.91,0.11 2.69,-0.05 z"
   fill="#1ca748"
   fill-rule="nonzero"
   opacity="1"
   stroke="none"
   vectornator:layerName="path"
   id="path24" />
<path
   d="m 1838.51,933.705 c -12.91,-12.376 -25.66,-24.976 -38.38,-37.607 -7.43,-7.371 -14.78,-14.818 -22.23,-22.165 -1.26,-1.241 -2.85,-2.146 -4.66,-3.218 1.03,0.023 2.94,-0.517 3.77,0.195 3.16,2.675 5.96,5.757 8.89,8.689 16.54,16.536 33.09,33.061 49.59,49.633 1.23,1.239 2.13,2.817 3.02,4.473 z"
   fill="#aeb528"
   fill-rule="nonzero"
   opacity="1"
   stroke="none"
   vectornator:layerName="path"
   id="path26" />
<path
   d="m 1599.84,1043.21 c -0.37,0.18 -1.15,0.35 -2.01,0.27 0.47,-0.26 1.03,-0.27 2.01,-0.27 z"
   fill="#aeb528"
   fill-rule="nonzero"
   opacity="1"
   stroke="none"
   vectornator:layerName="path"
   id="path28" />
<path
   d="m 216.901,926.009 c 20.519,-20.574 41.039,-41.148 62.184,-61.904 1.09,-0.238 1.555,-0.293 2.019,-0.349 26.434,26.357 52.871,52.711 79.302,79.071 7.116,7.097 7.108,7.105 14.366,-0.153 25.455,-25.455 50.975,-50.845 76.289,-76.44 3.459,-3.498 5.416,-3.278 8.736,0.095 18.472,18.765 37.067,37.413 55.874,55.842 3.76,3.684 3.283,5.685 -0.197,9.129 -26.412,26.146 -52.562,52.558 -78.993,78.68 -3.64,3.6 -3.546,5.57 0.038,9.11 26.777,26.49 53.273,53.26 80.061,79.74 3.689,3.65 3.442,5.64 -0.103,9.13 -18.665,18.33 -37.078,36.92 -55.584,55.42 -4.545,4.55 -4.561,4.54 -9.292,-0.19 -26.4,-26.39 -52.796,-52.79 -79.195,-79.19 -4.884,-4.88 -4.894,-4.88 -9.63,-0.15 -26.518,26.52 -53.086,52.98 -79.479,79.62 -3.186,3.21 -4.97,3.43 -8.266,0.07 -18.691,-19.01 -37.634,-37.78 -56.482,-56.65 -1.158,-1.16 -2.239,-2.39 -3.706,-3.97 1.502,-1.62 2.779,-3.08 4.149,-4.45 26.507,-26.53 52.949,-53.12 79.628,-79.47 3.716,-3.67 3.372,-5.59 -0.133,-9.07 -27.23,-26.974 -54.26,-54.152 -81.493,-81.888 -0.124,-1.091 -0.109,-1.562 -0.093,-2.033 z"
   fill="#ee4c3c"
   fill-rule="nonzero"
   opacity="1"
   stroke="none"
   vectornator:layerName="path"
   id="path30" />
<path
   d="m 216.654,926.06 c 0.231,0.42 0.216,0.891 0.137,1.711 -0.17,-0.32 -0.277,-0.99 -0.137,-1.711 z"
   fill="#ef7410"
   fill-rule="nonzero"
   opacity="1"
   stroke="none"
   vectornator:layerName="path"
   id="path32" />
<path
   d="m 281.017,863.522 c -0.377,0.29 -0.842,0.345 -1.657,0.39 0.29,-0.215 0.93,-0.42 1.657,-0.39 z"
   fill="#ef7410"
   fill-rule="nonzero"
   opacity="1"
   stroke="none"
   vectornator:layerName="path"
   id="path34" />
<path
   d="m 825.512,964.009 c 1.672,-0.538 3.154,-0.79 4.636,-0.79 117.563,-0.019 235.122,-0.017 352.692,-0.014 0.66,0 1.33,0.044 2.5,0.365 0.73,0.805 0.96,1.314 1.19,1.822 4.09,14.544 6.62,29.267 7.74,44.418 1.04,14.1 -0.57,27.76 -2.14,41.64 -7.09,62.89 -60.08,140.58 -154.09,156.44 -15.38,2.59 -31.44,4.02 -46.909,2.73 -37.41,-3.11 -71.605,-16.03 -101.366,-39.42 -40.186,-31.58 -63.911,-72.87 -71.357,-123.34 -1.7,-11.52 -2.677,-23.35 -2.158,-34.96 0.737,-16.468 4.049,-32.695 9.262,-48.891 z"
   fill="#000000"
   fill-rule="nonzero"
   opacity="1"
   stroke="none"
   vectornator:layerName="path"
   id="path36" />
<path
   d="m 1186.67,965.061 c -0.37,-0.177 -0.6,-0.686 -0.88,-1.479 0.18,-0.329 0.41,-0.372 0.99,-0.343 0.24,0.545 0.14,1.018 -0.11,1.822 z"
   fill="#f1caaa"
   fill-rule="nonzero"
   opacity="1"
   stroke="none"
   vectornator:layerName="path"
   id="path38" />
</g>
</svg>
